<mxfile host="app.diagrams.net" modified="2024-06-23T12:17:59.041Z" agent="Mozilla/5.0 (Windows NT 10.0; Win64; x64) AppleWebKit/537.36 (KHTML, like Gecko) Chrome/126.0.0.0 Safari/537.36" etag="I4cFdpCd7DffFqLyyENh" version="24.3.1" type="github">
  <diagram name="Page-1" id="PYd-O_xFokjqbC7pjso_">
    <mxGraphModel dx="2336" dy="987" grid="1" gridSize="10" guides="1" tooltips="1" connect="1" arrows="1" fold="1" page="1" pageScale="1" pageWidth="850" pageHeight="1100" math="0" shadow="0">
      <root>
        <mxCell id="0" />
        <mxCell id="1" parent="0" />
        <mxCell id="UocRsOeT7tiTQksgyZBa-1" value="&lt;p align=&quot;center&quot; class=&quot;MsoNormal&quot;&gt;Student Information&lt;/p&gt;" style="rounded=1;whiteSpace=wrap;html=1;" vertex="1" parent="1">
          <mxGeometry x="80" y="210" width="120" height="40" as="geometry" />
        </mxCell>
        <mxCell id="UocRsOeT7tiTQksgyZBa-2" value="&lt;p align=&quot;center&quot; class=&quot;MsoNormal&quot;&gt;Faculty Information&lt;/p&gt;" style="rounded=1;whiteSpace=wrap;html=1;" vertex="1" parent="1">
          <mxGeometry x="80" y="300" width="120" height="40" as="geometry" />
        </mxCell>
        <mxCell id="UocRsOeT7tiTQksgyZBa-3" value="&lt;p align=&quot;center&quot; class=&quot;MsoNormal&quot;&gt;Subjects&lt;/p&gt;" style="rounded=1;whiteSpace=wrap;html=1;" vertex="1" parent="1">
          <mxGeometry x="80" y="550" width="120" height="40" as="geometry" />
        </mxCell>
        <mxCell id="UocRsOeT7tiTQksgyZBa-4" value="&lt;p align=&quot;center&quot; class=&quot;MsoNormal&quot;&gt;Faculty Available Schedule&lt;/p&gt;" style="rounded=1;whiteSpace=wrap;html=1;" vertex="1" parent="1">
          <mxGeometry x="80" y="380" width="120" height="40" as="geometry" />
        </mxCell>
        <mxCell id="UocRsOeT7tiTQksgyZBa-5" value="&lt;p align=&quot;center&quot; class=&quot;MsoNormal&quot;&gt;Rooms&lt;/p&gt;" style="rounded=1;whiteSpace=wrap;html=1;" vertex="1" parent="1">
          <mxGeometry x="80" y="460" width="120" height="40" as="geometry" />
        </mxCell>
        <mxCell id="UocRsOeT7tiTQksgyZBa-6" value="&lt;p align=&quot;center&quot; class=&quot;MsoNormal&quot;&gt;Manage Student Information&lt;/p&gt;" style="rounded=1;whiteSpace=wrap;html=1;" vertex="1" parent="1">
          <mxGeometry x="310" y="210" width="120" height="40" as="geometry" />
        </mxCell>
        <mxCell id="UocRsOeT7tiTQksgyZBa-7" value="&lt;p align=&quot;center&quot; class=&quot;MsoNormal&quot;&gt;Manage Faculty Information&lt;/p&gt;" style="rounded=1;whiteSpace=wrap;html=1;" vertex="1" parent="1">
          <mxGeometry x="310" y="260" width="120" height="40" as="geometry" />
        </mxCell>
        <mxCell id="UocRsOeT7tiTQksgyZBa-8" value="&lt;p align=&quot;center&quot; class=&quot;MsoNormal&quot;&gt;Manage Faculty Schedule&lt;/p&gt;" style="rounded=1;whiteSpace=wrap;html=1;" vertex="1" parent="1">
          <mxGeometry x="310" y="310" width="120" height="40" as="geometry" />
        </mxCell>
        <mxCell id="UocRsOeT7tiTQksgyZBa-9" value="&lt;p align=&quot;center&quot; class=&quot;MsoNormal&quot;&gt;Manage Class&lt;br&gt;- Faculty&lt;br&gt;- Subjects&lt;br&gt;- Rooms&lt;/p&gt;" style="rounded=1;whiteSpace=wrap;html=1;" vertex="1" parent="1">
          <mxGeometry x="310" y="460" width="120" height="80" as="geometry" />
        </mxCell>
        <mxCell id="UocRsOeT7tiTQksgyZBa-10" value="&lt;p align=&quot;center&quot; class=&quot;MsoNormal&quot;&gt;Enroll Students&lt;/p&gt;" style="rounded=1;whiteSpace=wrap;html=1;" vertex="1" parent="1">
          <mxGeometry x="310" y="550" width="120" height="40" as="geometry" />
        </mxCell>
        <mxCell id="UocRsOeT7tiTQksgyZBa-11" value="&lt;p align=&quot;center&quot; class=&quot;MsoNormal&quot;&gt;Manage Rooms&lt;/p&gt;" style="rounded=1;whiteSpace=wrap;html=1;" vertex="1" parent="1">
          <mxGeometry x="310" y="360" width="120" height="40" as="geometry" />
        </mxCell>
        <mxCell id="UocRsOeT7tiTQksgyZBa-12" value="&lt;p align=&quot;center&quot; class=&quot;MsoNormal&quot;&gt;Manage Subjects&lt;/p&gt;" style="rounded=1;whiteSpace=wrap;html=1;" vertex="1" parent="1">
          <mxGeometry x="310" y="410" width="120" height="40" as="geometry" />
        </mxCell>
        <mxCell id="UocRsOeT7tiTQksgyZBa-22" value="" style="endArrow=classic;html=1;rounded=0;entryX=0;entryY=0.5;entryDx=0;entryDy=0;exitX=1;exitY=0.5;exitDx=0;exitDy=0;" edge="1" parent="1" source="UocRsOeT7tiTQksgyZBa-1" target="UocRsOeT7tiTQksgyZBa-10">
          <mxGeometry width="50" height="50" relative="1" as="geometry">
            <mxPoint x="200" y="670" as="sourcePoint" />
            <mxPoint x="250" y="620" as="targetPoint" />
          </mxGeometry>
        </mxCell>
        <mxCell id="UocRsOeT7tiTQksgyZBa-23" value="" style="endArrow=classic;html=1;rounded=0;entryX=0;entryY=0.25;entryDx=0;entryDy=0;" edge="1" parent="1" source="UocRsOeT7tiTQksgyZBa-2" target="UocRsOeT7tiTQksgyZBa-8">
          <mxGeometry width="50" height="50" relative="1" as="geometry">
            <mxPoint x="200" y="300" as="sourcePoint" />
            <mxPoint x="210" y="620" as="targetPoint" />
          </mxGeometry>
        </mxCell>
        <mxCell id="UocRsOeT7tiTQksgyZBa-24" value="" style="endArrow=classic;html=1;rounded=0;exitX=1;exitY=0.75;exitDx=0;exitDy=0;entryX=0;entryY=0.25;entryDx=0;entryDy=0;" edge="1" parent="1" source="UocRsOeT7tiTQksgyZBa-2" target="UocRsOeT7tiTQksgyZBa-9">
          <mxGeometry width="50" height="50" relative="1" as="geometry">
            <mxPoint x="190" y="650" as="sourcePoint" />
            <mxPoint x="240" y="600" as="targetPoint" />
          </mxGeometry>
        </mxCell>
        <mxCell id="UocRsOeT7tiTQksgyZBa-25" value="" style="endArrow=classic;html=1;rounded=0;exitX=1;exitY=0.5;exitDx=0;exitDy=0;exitPerimeter=0;entryX=0;entryY=0.75;entryDx=0;entryDy=0;" edge="1" parent="1" source="UocRsOeT7tiTQksgyZBa-3" target="UocRsOeT7tiTQksgyZBa-9">
          <mxGeometry width="50" height="50" relative="1" as="geometry">
            <mxPoint x="130" y="590" as="sourcePoint" />
            <mxPoint x="300" y="520" as="targetPoint" />
          </mxGeometry>
        </mxCell>
        <mxCell id="UocRsOeT7tiTQksgyZBa-26" value="" style="endArrow=classic;html=1;rounded=0;exitX=1;exitY=0.75;exitDx=0;exitDy=0;entryX=0;entryY=0.5;entryDx=0;entryDy=0;" edge="1" parent="1" source="UocRsOeT7tiTQksgyZBa-5" target="UocRsOeT7tiTQksgyZBa-9">
          <mxGeometry width="50" height="50" relative="1" as="geometry">
            <mxPoint x="150" y="590" as="sourcePoint" />
            <mxPoint x="200" y="540" as="targetPoint" />
          </mxGeometry>
        </mxCell>
        <mxCell id="UocRsOeT7tiTQksgyZBa-27" value="" style="endArrow=classic;html=1;rounded=0;exitX=1;exitY=0.25;exitDx=0;exitDy=0;entryX=0;entryY=0.5;entryDx=0;entryDy=0;" edge="1" parent="1" source="UocRsOeT7tiTQksgyZBa-2" target="UocRsOeT7tiTQksgyZBa-7">
          <mxGeometry width="50" height="50" relative="1" as="geometry">
            <mxPoint x="80" y="420" as="sourcePoint" />
            <mxPoint x="130" y="370" as="targetPoint" />
          </mxGeometry>
        </mxCell>
        <mxCell id="UocRsOeT7tiTQksgyZBa-28" value="" style="endArrow=classic;html=1;rounded=0;exitX=1;exitY=0.5;exitDx=0;exitDy=0;entryX=0;entryY=0.75;entryDx=0;entryDy=0;" edge="1" parent="1" source="UocRsOeT7tiTQksgyZBa-4" target="UocRsOeT7tiTQksgyZBa-8">
          <mxGeometry width="50" height="50" relative="1" as="geometry">
            <mxPoint x="130" y="480" as="sourcePoint" />
            <mxPoint x="180" y="430" as="targetPoint" />
          </mxGeometry>
        </mxCell>
        <mxCell id="UocRsOeT7tiTQksgyZBa-29" value="" style="endArrow=classic;html=1;rounded=0;exitX=1;exitY=0.25;exitDx=0;exitDy=0;entryX=0;entryY=0.25;entryDx=0;entryDy=0;" edge="1" parent="1" source="UocRsOeT7tiTQksgyZBa-1" target="UocRsOeT7tiTQksgyZBa-6">
          <mxGeometry width="50" height="50" relative="1" as="geometry">
            <mxPoint x="200" y="220" as="sourcePoint" />
            <mxPoint x="310" y="220" as="targetPoint" />
          </mxGeometry>
        </mxCell>
        <mxCell id="UocRsOeT7tiTQksgyZBa-31" value="" style="endArrow=classic;html=1;rounded=0;exitX=1;exitY=0.25;exitDx=0;exitDy=0;entryX=0;entryY=0.5;entryDx=0;entryDy=0;" edge="1" parent="1" source="UocRsOeT7tiTQksgyZBa-5" target="UocRsOeT7tiTQksgyZBa-11">
          <mxGeometry width="50" height="50" relative="1" as="geometry">
            <mxPoint x="160" y="790" as="sourcePoint" />
            <mxPoint x="210" y="740" as="targetPoint" />
          </mxGeometry>
        </mxCell>
        <mxCell id="UocRsOeT7tiTQksgyZBa-32" value="" style="endArrow=classic;html=1;rounded=0;exitX=1;exitY=0.25;exitDx=0;exitDy=0;entryX=0;entryY=0.5;entryDx=0;entryDy=0;" edge="1" parent="1" source="UocRsOeT7tiTQksgyZBa-3" target="UocRsOeT7tiTQksgyZBa-12">
          <mxGeometry width="50" height="50" relative="1" as="geometry">
            <mxPoint x="250" y="750" as="sourcePoint" />
            <mxPoint x="300" y="700" as="targetPoint" />
          </mxGeometry>
        </mxCell>
        <mxCell id="UocRsOeT7tiTQksgyZBa-33" value="&lt;p align=&quot;center&quot; class=&quot;MsoNormal&quot;&gt;Student Profile&lt;/p&gt;" style="rounded=1;whiteSpace=wrap;html=1;" vertex="1" parent="1">
          <mxGeometry x="540" y="210" width="120" height="40" as="geometry" />
        </mxCell>
        <mxCell id="UocRsOeT7tiTQksgyZBa-34" value="&lt;p align=&quot;center&quot; class=&quot;MsoNormal&quot;&gt;Faculty Profile&lt;/p&gt;" style="rounded=1;whiteSpace=wrap;html=1;" vertex="1" parent="1">
          <mxGeometry x="540" y="260" width="120" height="40" as="geometry" />
        </mxCell>
        <mxCell id="UocRsOeT7tiTQksgyZBa-35" value="List of Faculty Availability" style="rounded=1;whiteSpace=wrap;html=1;" vertex="1" parent="1">
          <mxGeometry x="540" y="310" width="120" height="40" as="geometry" />
        </mxCell>
        <mxCell id="UocRsOeT7tiTQksgyZBa-36" value="&lt;p align=&quot;center&quot; class=&quot;MsoNormal&quot;&gt;LIst of Rooms&lt;/p&gt;" style="rounded=1;whiteSpace=wrap;html=1;" vertex="1" parent="1">
          <mxGeometry x="540" y="360" width="120" height="40" as="geometry" />
        </mxCell>
        <mxCell id="UocRsOeT7tiTQksgyZBa-37" value="&lt;p align=&quot;center&quot; class=&quot;MsoNormal&quot;&gt;List of subjects&lt;/p&gt;" style="rounded=1;whiteSpace=wrap;html=1;" vertex="1" parent="1">
          <mxGeometry x="540" y="410" width="120" height="40" as="geometry" />
        </mxCell>
        <mxCell id="UocRsOeT7tiTQksgyZBa-38" value="&lt;p align=&quot;center&quot; class=&quot;MsoNormal&quot;&gt;Class Timetable&lt;/p&gt;" style="rounded=1;whiteSpace=wrap;html=1;" vertex="1" parent="1">
          <mxGeometry x="540" y="460" width="120" height="40" as="geometry" />
        </mxCell>
        <mxCell id="UocRsOeT7tiTQksgyZBa-39" value="&lt;p align=&quot;center&quot; class=&quot;MsoNormal&quot;&gt;List of Class&lt;/p&gt;" style="rounded=1;whiteSpace=wrap;html=1;" vertex="1" parent="1">
          <mxGeometry x="540" y="510" width="120" height="40" as="geometry" />
        </mxCell>
        <mxCell id="UocRsOeT7tiTQksgyZBa-40" value="&lt;p align=&quot;center&quot; class=&quot;MsoNormal&quot;&gt;Faculty list of Students in Class&lt;/p&gt;" style="rounded=1;whiteSpace=wrap;html=1;" vertex="1" parent="1">
          <mxGeometry x="540" y="560" width="120" height="40" as="geometry" />
        </mxCell>
        <mxCell id="UocRsOeT7tiTQksgyZBa-42" value="" style="endArrow=classic;html=1;rounded=0;exitX=1;exitY=0.75;exitDx=0;exitDy=0;entryX=0;entryY=0.75;entryDx=0;entryDy=0;" edge="1" parent="1" source="UocRsOeT7tiTQksgyZBa-3" target="UocRsOeT7tiTQksgyZBa-10">
          <mxGeometry width="50" height="50" relative="1" as="geometry">
            <mxPoint x="430" y="790" as="sourcePoint" />
            <mxPoint x="480" y="740" as="targetPoint" />
          </mxGeometry>
        </mxCell>
        <mxCell id="UocRsOeT7tiTQksgyZBa-43" value="&lt;p align=&quot;center&quot; class=&quot;MsoNormal&quot;&gt;Student Cor&lt;/p&gt;" style="rounded=1;whiteSpace=wrap;html=1;" vertex="1" parent="1">
          <mxGeometry x="540" y="610" width="120" height="40" as="geometry" />
        </mxCell>
        <mxCell id="UocRsOeT7tiTQksgyZBa-44" value="" style="endArrow=classic;html=1;rounded=0;exitX=1;exitY=0.25;exitDx=0;exitDy=0;entryX=0;entryY=0.5;entryDx=0;entryDy=0;" edge="1" parent="1" source="UocRsOeT7tiTQksgyZBa-6" target="UocRsOeT7tiTQksgyZBa-33">
          <mxGeometry width="50" height="50" relative="1" as="geometry">
            <mxPoint x="420" y="810" as="sourcePoint" />
            <mxPoint x="470" y="760" as="targetPoint" />
          </mxGeometry>
        </mxCell>
        <mxCell id="UocRsOeT7tiTQksgyZBa-45" value="" style="endArrow=classic;html=1;rounded=0;exitX=1;exitY=0.5;exitDx=0;exitDy=0;entryX=0;entryY=0.25;entryDx=0;entryDy=0;" edge="1" parent="1" source="UocRsOeT7tiTQksgyZBa-6" target="UocRsOeT7tiTQksgyZBa-40">
          <mxGeometry width="50" height="50" relative="1" as="geometry">
            <mxPoint x="430" y="260" as="sourcePoint" />
            <mxPoint x="540" y="270" as="targetPoint" />
            <Array as="points">
              <mxPoint x="510" y="300" />
              <mxPoint x="510" y="440" />
              <mxPoint x="510" y="570" />
            </Array>
          </mxGeometry>
        </mxCell>
        <mxCell id="UocRsOeT7tiTQksgyZBa-46" value="" style="endArrow=classic;html=1;rounded=0;entryX=0.013;entryY=0.129;entryDx=0;entryDy=0;entryPerimeter=0;" edge="1" parent="1" target="UocRsOeT7tiTQksgyZBa-43">
          <mxGeometry width="50" height="50" relative="1" as="geometry">
            <mxPoint x="430" y="240" as="sourcePoint" />
            <mxPoint x="540" y="650" as="targetPoint" />
            <Array as="points">
              <mxPoint x="500" y="320" />
              <mxPoint x="500" y="480" />
              <mxPoint x="500" y="580" />
            </Array>
          </mxGeometry>
        </mxCell>
        <mxCell id="UocRsOeT7tiTQksgyZBa-48" value="" style="endArrow=classic;html=1;rounded=0;exitX=1;exitY=0.5;exitDx=0;exitDy=0;entryX=0;entryY=0.25;entryDx=0;entryDy=0;" edge="1" parent="1" source="UocRsOeT7tiTQksgyZBa-7" target="UocRsOeT7tiTQksgyZBa-38">
          <mxGeometry width="50" height="50" relative="1" as="geometry">
            <mxPoint x="450" y="330" as="sourcePoint" />
            <mxPoint x="560" y="370" as="targetPoint" />
            <Array as="points">
              <mxPoint x="480" y="320" />
              <mxPoint x="480" y="370" />
              <mxPoint x="480" y="400" />
            </Array>
          </mxGeometry>
        </mxCell>
        <mxCell id="UocRsOeT7tiTQksgyZBa-49" value="" style="endArrow=classic;html=1;rounded=0;exitX=1;exitY=0.5;exitDx=0;exitDy=0;entryX=0;entryY=0.5;entryDx=0;entryDy=0;" edge="1" parent="1">
          <mxGeometry width="50" height="50" relative="1" as="geometry">
            <mxPoint x="430" y="270" as="sourcePoint" />
            <mxPoint x="540" y="270" as="targetPoint" />
          </mxGeometry>
        </mxCell>
        <mxCell id="UocRsOeT7tiTQksgyZBa-50" value="" style="endArrow=classic;html=1;rounded=0;exitX=1;exitY=0.75;exitDx=0;exitDy=0;entryX=0.007;entryY=0.367;entryDx=0;entryDy=0;entryPerimeter=0;" edge="1" parent="1" source="UocRsOeT7tiTQksgyZBa-7" target="UocRsOeT7tiTQksgyZBa-43">
          <mxGeometry width="50" height="50" relative="1" as="geometry">
            <mxPoint x="430" y="510" as="sourcePoint" />
            <mxPoint x="540" y="750" as="targetPoint" />
            <Array as="points">
              <mxPoint x="470" y="340" />
              <mxPoint x="470" y="480" />
              <mxPoint x="470" y="550" />
              <mxPoint x="470" y="570" />
            </Array>
          </mxGeometry>
        </mxCell>
        <mxCell id="UocRsOeT7tiTQksgyZBa-51" value="" style="endArrow=classic;html=1;rounded=0;exitX=1;exitY=0.5;exitDx=0;exitDy=0;entryX=0;entryY=0.5;entryDx=0;entryDy=0;" edge="1" parent="1" source="UocRsOeT7tiTQksgyZBa-8" target="UocRsOeT7tiTQksgyZBa-35">
          <mxGeometry width="50" height="50" relative="1" as="geometry">
            <mxPoint x="470" y="760" as="sourcePoint" />
            <mxPoint x="520" y="710" as="targetPoint" />
          </mxGeometry>
        </mxCell>
        <mxCell id="UocRsOeT7tiTQksgyZBa-52" value="" style="endArrow=classic;html=1;rounded=0;exitX=1;exitY=0.25;exitDx=0;exitDy=0;entryX=0;entryY=0.5;entryDx=0;entryDy=0;" edge="1" parent="1" source="UocRsOeT7tiTQksgyZBa-11" target="UocRsOeT7tiTQksgyZBa-36">
          <mxGeometry width="50" height="50" relative="1" as="geometry">
            <mxPoint x="380" y="740" as="sourcePoint" />
            <mxPoint x="430" y="690" as="targetPoint" />
          </mxGeometry>
        </mxCell>
        <mxCell id="UocRsOeT7tiTQksgyZBa-53" value="" style="endArrow=classic;html=1;rounded=0;exitX=1;exitY=0.25;exitDx=0;exitDy=0;entryX=0;entryY=0.5;entryDx=0;entryDy=0;" edge="1" parent="1" source="UocRsOeT7tiTQksgyZBa-11" target="UocRsOeT7tiTQksgyZBa-38">
          <mxGeometry width="50" height="50" relative="1" as="geometry">
            <mxPoint x="430" y="420" as="sourcePoint" />
            <mxPoint x="540" y="530" as="targetPoint" />
            <Array as="points">
              <mxPoint x="460" y="410" />
            </Array>
          </mxGeometry>
        </mxCell>
        <mxCell id="UocRsOeT7tiTQksgyZBa-54" value="" style="endArrow=classic;html=1;rounded=0;exitX=1;exitY=0.5;exitDx=0;exitDy=0;entryX=0;entryY=0.25;entryDx=0;entryDy=0;" edge="1" parent="1" source="UocRsOeT7tiTQksgyZBa-11" target="UocRsOeT7tiTQksgyZBa-39">
          <mxGeometry width="50" height="50" relative="1" as="geometry">
            <mxPoint x="430" y="450" as="sourcePoint" />
            <mxPoint x="540" y="560" as="targetPoint" />
            <Array as="points">
              <mxPoint x="460" y="440" />
            </Array>
          </mxGeometry>
        </mxCell>
        <mxCell id="UocRsOeT7tiTQksgyZBa-55" value="" style="endArrow=classic;html=1;rounded=0;exitX=1;exitY=0.75;exitDx=0;exitDy=0;entryX=0;entryY=0.5;entryDx=0;entryDy=0;" edge="1" parent="1" source="UocRsOeT7tiTQksgyZBa-11" target="UocRsOeT7tiTQksgyZBa-43">
          <mxGeometry width="50" height="50" relative="1" as="geometry">
            <mxPoint x="430" y="409.68" as="sourcePoint" />
            <mxPoint x="540" y="554.68" as="targetPoint" />
            <Array as="points">
              <mxPoint x="460" y="450" />
              <mxPoint x="460" y="590" />
              <mxPoint x="500" y="620" />
            </Array>
          </mxGeometry>
        </mxCell>
        <mxCell id="UocRsOeT7tiTQksgyZBa-56" value="" style="endArrow=classic;html=1;rounded=0;exitX=1;exitY=0.25;exitDx=0;exitDy=0;entryX=0;entryY=0.5;entryDx=0;entryDy=0;" edge="1" parent="1" source="UocRsOeT7tiTQksgyZBa-12" target="UocRsOeT7tiTQksgyZBa-37">
          <mxGeometry width="50" height="50" relative="1" as="geometry">
            <mxPoint x="320" y="790" as="sourcePoint" />
            <mxPoint x="370" y="740" as="targetPoint" />
          </mxGeometry>
        </mxCell>
        <mxCell id="UocRsOeT7tiTQksgyZBa-57" value="" style="endArrow=classic;html=1;rounded=0;exitX=1;exitY=0.5;exitDx=0;exitDy=0;" edge="1" parent="1" source="UocRsOeT7tiTQksgyZBa-12">
          <mxGeometry width="50" height="50" relative="1" as="geometry">
            <mxPoint x="430" y="430" as="sourcePoint" />
            <mxPoint x="540" y="490" as="targetPoint" />
            <Array as="points">
              <mxPoint x="450" y="460" />
            </Array>
          </mxGeometry>
        </mxCell>
        <mxCell id="UocRsOeT7tiTQksgyZBa-58" value="" style="endArrow=classic;html=1;rounded=0;exitX=1;exitY=0.75;exitDx=0;exitDy=0;entryX=0;entryY=0.5;entryDx=0;entryDy=0;" edge="1" parent="1" source="UocRsOeT7tiTQksgyZBa-12" target="UocRsOeT7tiTQksgyZBa-39">
          <mxGeometry width="50" height="50" relative="1" as="geometry">
            <mxPoint x="390" y="710" as="sourcePoint" />
            <mxPoint x="440" y="660" as="targetPoint" />
            <Array as="points">
              <mxPoint x="450" y="480" />
            </Array>
          </mxGeometry>
        </mxCell>
        <mxCell id="UocRsOeT7tiTQksgyZBa-59" value="" style="endArrow=classic;html=1;rounded=0;exitX=1;exitY=0.25;exitDx=0;exitDy=0;entryX=0.034;entryY=0.974;entryDx=0;entryDy=0;entryPerimeter=0;" edge="1" parent="1" source="UocRsOeT7tiTQksgyZBa-9" target="UocRsOeT7tiTQksgyZBa-38">
          <mxGeometry width="50" height="50" relative="1" as="geometry">
            <mxPoint x="400" y="730" as="sourcePoint" />
            <mxPoint x="450" y="680" as="targetPoint" />
            <Array as="points">
              <mxPoint x="440" y="500" />
            </Array>
          </mxGeometry>
        </mxCell>
        <mxCell id="UocRsOeT7tiTQksgyZBa-60" value="" style="endArrow=classic;html=1;rounded=0;exitX=0.993;exitY=0.63;exitDx=0;exitDy=0;exitPerimeter=0;entryX=0;entryY=0.75;entryDx=0;entryDy=0;" edge="1" parent="1" source="UocRsOeT7tiTQksgyZBa-9" target="UocRsOeT7tiTQksgyZBa-39">
          <mxGeometry width="50" height="50" relative="1" as="geometry">
            <mxPoint x="480" y="700" as="sourcePoint" />
            <mxPoint x="530" y="650" as="targetPoint" />
            <Array as="points">
              <mxPoint x="450" y="520" />
            </Array>
          </mxGeometry>
        </mxCell>
        <mxCell id="UocRsOeT7tiTQksgyZBa-61" value="" style="endArrow=classic;html=1;rounded=0;exitX=1.014;exitY=0.852;exitDx=0;exitDy=0;exitPerimeter=0;entryX=0;entryY=0.75;entryDx=0;entryDy=0;" edge="1" parent="1" source="UocRsOeT7tiTQksgyZBa-9" target="UocRsOeT7tiTQksgyZBa-43">
          <mxGeometry width="50" height="50" relative="1" as="geometry">
            <mxPoint x="429" y="519.6" as="sourcePoint" />
            <mxPoint x="540" y="630" as="targetPoint" />
            <Array as="points">
              <mxPoint x="450" y="600" />
              <mxPoint x="500" y="630" />
            </Array>
          </mxGeometry>
        </mxCell>
        <mxCell id="UocRsOeT7tiTQksgyZBa-62" value="" style="endArrow=classic;html=1;rounded=0;exitX=1;exitY=0.5;exitDx=0;exitDy=0;entryX=-0.008;entryY=0.891;entryDx=0;entryDy=0;entryPerimeter=0;" edge="1" parent="1" source="UocRsOeT7tiTQksgyZBa-10" target="UocRsOeT7tiTQksgyZBa-43">
          <mxGeometry width="50" height="50" relative="1" as="geometry">
            <mxPoint x="480" y="690" as="sourcePoint" />
            <mxPoint x="530" y="640" as="targetPoint" />
            <Array as="points">
              <mxPoint x="440" y="610" />
              <mxPoint x="490" y="646" />
            </Array>
          </mxGeometry>
        </mxCell>
        <mxCell id="UocRsOeT7tiTQksgyZBa-67" value="" style="group" vertex="1" connectable="0" parent="1">
          <mxGeometry x="85.5" y="150" width="569" height="30" as="geometry" />
        </mxCell>
        <mxCell id="UocRsOeT7tiTQksgyZBa-64" value="&lt;span style=&quot;font-size: 18px;&quot;&gt;PROCESS&lt;/span&gt;" style="rounded=0;whiteSpace=wrap;html=1;" vertex="1" parent="UocRsOeT7tiTQksgyZBa-67">
          <mxGeometry x="230" width="110" height="30" as="geometry" />
        </mxCell>
        <mxCell id="UocRsOeT7tiTQksgyZBa-65" value="&lt;font style=&quot;font-size: 18px;&quot;&gt;INPUT&lt;/font&gt;" style="rounded=0;whiteSpace=wrap;html=1;" vertex="1" parent="UocRsOeT7tiTQksgyZBa-67">
          <mxGeometry width="110" height="30" as="geometry" />
        </mxCell>
        <mxCell id="UocRsOeT7tiTQksgyZBa-66" value="&lt;span style=&quot;font-size: 18px;&quot;&gt;OUTPUT&lt;/span&gt;" style="rounded=0;whiteSpace=wrap;html=1;" vertex="1" parent="UocRsOeT7tiTQksgyZBa-67">
          <mxGeometry x="459" width="110" height="30" as="geometry" />
        </mxCell>
      </root>
    </mxGraphModel>
  </diagram>
</mxfile>
